<svg width="563" height="161" viewBox="0 0 563 161" fill="none" xmlns="http://www.w3.org/2000/svg">
<path d="M0 25C0 11.1929 11.1929 0 25 0H59.1829V161H25C11.1929 161 0 149.807 0 136V25Z" fill="#F94144"/>
<rect x="59" width="56" height="161" fill="#F3722C"/>
<rect x="115" width="56" height="161" fill="#F8961E"/>
<rect x="171" width="56" height="161" fill="#F9844A"/>
<rect x="227" width="56" height="161" fill="#F9C74F"/>
<rect x="283" width="56" height="161" fill="#90BE6D"/>
<rect x="339" width="56" height="161" fill="#43AA8B"/>
<rect x="395" width="56" height="161" fill="#4D908E"/>
<rect x="451" width="56" height="161" fill="#577590"/>
<path d="M507 0H538C551.807 0 563 11.1929 563 25V136C563 149.807 551.807 161 538 161H507V0Z" fill="#277DA1"/>
<path d="M84.4034 109V50.8182H98.4659V75.4205H99.233L118.466 50.8182H135.028L114.403 76.7841L135.398 109H118.58L104.091 86.1307L98.4659 93.233V109H84.4034ZM157.77 109.824C153.205 109.824 149.266 108.924 145.952 107.125C142.656 105.307 140.118 102.722 138.338 99.3693C136.577 95.9981 135.696 91.9924 135.696 87.3523C135.696 82.8447 136.586 78.9053 138.366 75.5341C140.147 72.1439 142.656 69.5114 145.895 67.6364C149.134 65.7424 152.95 64.7955 157.344 64.7955C160.45 64.7955 163.291 65.2784 165.866 66.2443C168.442 67.2102 170.668 68.6402 172.543 70.5341C174.418 72.428 175.876 74.767 176.918 77.5511C177.959 80.3163 178.48 83.4886 178.48 87.0682V90.5341H140.554V82.4659H165.554C165.535 80.9886 165.185 79.6723 164.503 78.517C163.821 77.3617 162.884 76.4621 161.69 75.8182C160.516 75.1553 159.162 74.8239 157.628 74.8239C156.075 74.8239 154.683 75.1742 153.452 75.875C152.221 76.5568 151.245 77.4943 150.526 78.6875C149.806 79.8617 149.427 81.197 149.389 82.6932V90.9034C149.389 92.6837 149.74 94.2462 150.44 95.5909C151.141 96.9167 152.135 97.9489 153.423 98.6875C154.711 99.4261 156.245 99.7955 158.026 99.7955C159.257 99.7955 160.374 99.625 161.378 99.2841C162.382 98.9432 163.243 98.4413 163.963 97.7784C164.683 97.1155 165.223 96.3011 165.582 95.3352L178.338 95.7045C177.808 98.5644 176.643 101.055 174.844 103.176C173.063 105.278 170.724 106.917 167.827 108.091C164.929 109.246 161.577 109.824 157.77 109.824ZM199.467 84.1136V109H185.575V65.3636H198.786V73.375H199.268C200.234 70.7045 201.882 68.6117 204.212 67.0966C206.541 65.5625 209.316 64.7955 212.536 64.7955C215.604 64.7955 218.265 65.4867 220.518 66.8693C222.791 68.233 224.553 70.1458 225.803 72.608C227.071 75.0511 227.696 77.911 227.678 81.1875V109H213.786V83.9148C213.804 81.4905 213.189 79.5966 211.939 78.233C210.708 76.8693 208.994 76.1875 206.797 76.1875C205.339 76.1875 204.051 76.5095 202.933 77.1534C201.835 77.7784 200.982 78.678 200.376 79.8523C199.789 81.0265 199.486 82.447 199.467 84.1136ZM260.909 65.3636V75.5909H233.381V65.3636H260.909ZM239.148 54.9091H253.04V95.2784C253.04 96.1307 253.172 96.822 253.438 97.3523C253.722 97.8636 254.129 98.233 254.659 98.4602C255.189 98.6686 255.824 98.7727 256.562 98.7727C257.093 98.7727 257.652 98.7254 258.239 98.6307C258.845 98.517 259.299 98.4223 259.602 98.3466L261.705 108.375C261.042 108.564 260.104 108.801 258.892 109.085C257.699 109.369 256.269 109.549 254.602 109.625C251.345 109.777 248.551 109.398 246.222 108.489C243.911 107.561 242.14 106.121 240.909 104.17C239.697 102.22 239.11 99.767 239.148 96.8125V54.9091ZM281.051 50.8182L294.062 93.4318H294.545L307.557 50.8182H323.295L303.665 109H284.943L265.312 50.8182H281.051ZM329.56 109V65.3636H343.452V109H329.56ZM336.52 60.2784C334.569 60.2784 332.893 59.6345 331.491 58.3466C330.09 57.0398 329.389 55.4678 329.389 53.6307C329.389 51.8125 330.09 50.2595 331.491 48.9716C332.893 47.6648 334.569 47.0114 336.52 47.0114C338.49 47.0114 340.166 47.6648 341.548 48.9716C342.95 50.2595 343.651 51.8125 343.651 53.6307C343.651 55.4678 342.95 57.0398 341.548 58.3466C340.166 59.6345 338.49 60.2784 336.52 60.2784ZM390.391 78.6875L377.635 79.0284C377.502 78.1193 377.143 77.3144 376.555 76.6136C375.968 75.8939 375.201 75.3352 374.254 74.9375C373.326 74.5208 372.247 74.3125 371.016 74.3125C369.406 74.3125 368.033 74.6345 366.896 75.2784C365.779 75.9223 365.23 76.7936 365.249 77.892C365.23 78.7443 365.571 79.483 366.271 80.108C366.991 80.733 368.269 81.2348 370.107 81.6136L378.516 83.2045C382.872 84.0379 386.11 85.4205 388.232 87.3523C390.372 89.2841 391.451 91.8409 391.47 95.0227C391.451 98.0152 390.561 100.619 388.8 102.835C387.057 105.051 384.671 106.775 381.641 108.006C378.61 109.218 375.144 109.824 371.243 109.824C365.012 109.824 360.097 108.545 356.499 105.989C352.919 103.413 350.874 99.9659 350.362 95.6477L364.084 95.3068C364.387 96.8977 365.173 98.1098 366.442 98.9432C367.711 99.7765 369.33 100.193 371.3 100.193C373.08 100.193 374.529 99.8617 375.646 99.1989C376.764 98.536 377.332 97.6553 377.351 96.5568C377.332 95.572 376.896 94.786 376.044 94.1989C375.192 93.5928 373.857 93.1193 372.038 92.7784L364.425 91.3295C360.05 90.5341 356.792 89.0663 354.652 86.9261C352.512 84.767 351.451 82.0208 351.47 78.6875C351.451 75.7708 352.228 73.2803 353.8 71.2159C355.372 69.1326 357.607 67.5417 360.504 66.4432C363.402 65.3447 366.821 64.7955 370.76 64.7955C376.669 64.7955 381.328 66.036 384.737 68.517C388.146 70.9792 390.031 74.3693 390.391 78.6875ZM398.31 109V65.3636H412.202V109H398.31ZM405.27 60.2784C403.319 60.2784 401.643 59.6345 400.241 58.3466C398.84 57.0398 398.139 55.4678 398.139 53.6307C398.139 51.8125 398.84 50.2595 400.241 48.9716C401.643 47.6648 403.319 47.0114 405.27 47.0114C407.24 47.0114 408.916 47.6648 410.298 48.9716C411.7 50.2595 412.401 51.8125 412.401 53.6307C412.401 55.4678 411.7 57.0398 410.298 58.3466C408.916 59.6345 407.24 60.2784 405.27 60.2784ZM441.413 109.824C436.83 109.824 432.891 108.886 429.595 107.011C426.319 105.117 423.79 102.485 422.01 99.1136C420.249 95.7235 419.368 91.7936 419.368 87.3239C419.368 82.8352 420.249 78.9053 422.01 75.5341C423.79 72.1439 426.319 69.5114 429.595 67.6364C432.891 65.7424 436.83 64.7955 441.413 64.7955C445.997 64.7955 449.927 65.7424 453.203 67.6364C456.499 69.5114 459.027 72.1439 460.788 75.5341C462.569 78.9053 463.459 82.8352 463.459 87.3239C463.459 91.7936 462.569 95.7235 460.788 99.1136C459.027 102.485 456.499 105.117 453.203 107.011C449.927 108.886 445.997 109.824 441.413 109.824ZM441.499 99.3409C443.165 99.3409 444.576 98.8295 445.732 97.8068C446.887 96.7841 447.768 95.3636 448.374 93.5455C448.999 91.7273 449.311 89.625 449.311 87.2386C449.311 84.8144 448.999 82.6932 448.374 80.875C447.768 79.0568 446.887 77.6364 445.732 76.6136C444.576 75.5909 443.165 75.0795 441.499 75.0795C439.775 75.0795 438.317 75.5909 437.124 76.6136C435.949 77.6364 435.05 79.0568 434.425 80.875C433.819 82.6932 433.516 84.8144 433.516 87.2386C433.516 89.625 433.819 91.7273 434.425 93.5455C435.05 95.3636 435.949 96.7841 437.124 97.8068C438.317 98.8295 439.775 99.3409 441.499 99.3409ZM484.467 84.1136V109H470.575V65.3636H483.786V73.375H484.268C485.234 70.7045 486.882 68.6117 489.212 67.0966C491.541 65.5625 494.316 64.7955 497.536 64.7955C500.604 64.7955 503.265 65.4867 505.518 66.8693C507.791 68.233 509.553 70.1458 510.803 72.608C512.071 75.0511 512.696 77.911 512.678 81.1875V109H498.786V83.9148C498.804 81.4905 498.189 79.5966 496.939 78.233C495.708 76.8693 493.994 76.1875 491.797 76.1875C490.339 76.1875 489.051 76.5095 487.933 77.1534C486.835 77.7784 485.982 78.678 485.376 79.8523C484.789 81.0265 484.486 82.447 484.467 84.1136Z" fill="black"/>
</svg>
