<svg width="533" height="234" viewBox="0 0 533 234" fill="none" xmlns="http://www.w3.org/2000/svg">
<path d="M0 36C0 22.1929 11.1929 11 25 11H56V234H25C11.1929 234 0 222.807 0 209V36Z" fill="#F94144"/>
<rect x="56" y="55" width="53" height="179" fill="#F3722C"/>
<rect x="109" y="36" width="53" height="198" fill="#F8961E"/>
<rect x="162" width="53" height="234" fill="#F9844A"/>
<rect x="215" y="20" width="53" height="214" fill="#F9C74F"/>
<rect x="268" y="51" width="53" height="183" fill="#90BE6D"/>
<rect x="321" y="4" width="53" height="230" fill="#43AA8B"/>
<rect x="374" y="30" width="53" height="204" fill="#4D908E"/>
<rect x="427" y="62" width="53" height="172" fill="#577590"/>
<path d="M480 0H508C521.807 0 533 11.1929 533 25V209C533 222.807 521.807 234 508 234H480V0Z" fill="#277DA1"/>
<path d="M53.4034 177V118.818H67.4659V143.42H68.233L87.4659 118.818H104.028L83.4034 144.784L104.398 177H87.5795L73.0909 154.131L67.4659 161.233V177H53.4034ZM126.77 177.824C122.205 177.824 118.266 176.924 114.952 175.125C111.656 173.307 109.118 170.722 107.338 167.369C105.577 163.998 104.696 159.992 104.696 155.352C104.696 150.845 105.586 146.905 107.366 143.534C109.147 140.144 111.656 137.511 114.895 135.636C118.134 133.742 121.95 132.795 126.344 132.795C129.45 132.795 132.291 133.278 134.866 134.244C137.442 135.21 139.668 136.64 141.543 138.534C143.418 140.428 144.876 142.767 145.918 145.551C146.959 148.316 147.48 151.489 147.48 155.068V158.534H109.554V150.466H134.554C134.535 148.989 134.185 147.672 133.503 146.517C132.821 145.362 131.884 144.462 130.69 143.818C129.516 143.155 128.162 142.824 126.628 142.824C125.075 142.824 123.683 143.174 122.452 143.875C121.221 144.557 120.245 145.494 119.526 146.688C118.806 147.862 118.427 149.197 118.389 150.693V158.903C118.389 160.684 118.74 162.246 119.44 163.591C120.141 164.917 121.135 165.949 122.423 166.688C123.711 167.426 125.245 167.795 127.026 167.795C128.257 167.795 129.374 167.625 130.378 167.284C131.382 166.943 132.243 166.441 132.963 165.778C133.683 165.116 134.223 164.301 134.582 163.335L147.338 163.705C146.808 166.564 145.643 169.055 143.844 171.176C142.063 173.278 139.724 174.917 136.827 176.091C133.929 177.246 130.577 177.824 126.77 177.824ZM168.467 152.114V177H154.575V133.364H167.786V141.375H168.268C169.234 138.705 170.882 136.612 173.212 135.097C175.541 133.562 178.316 132.795 181.536 132.795C184.604 132.795 187.265 133.487 189.518 134.869C191.791 136.233 193.553 138.146 194.803 140.608C196.071 143.051 196.696 145.911 196.678 149.188V177H182.786V151.915C182.804 149.491 182.189 147.597 180.939 146.233C179.708 144.869 177.994 144.188 175.797 144.188C174.339 144.188 173.051 144.509 171.933 145.153C170.835 145.778 169.982 146.678 169.376 147.852C168.789 149.027 168.486 150.447 168.467 152.114ZM229.909 133.364V143.591H202.381V133.364H229.909ZM208.148 122.909H222.04V163.278C222.04 164.131 222.172 164.822 222.438 165.352C222.722 165.864 223.129 166.233 223.659 166.46C224.189 166.669 224.824 166.773 225.562 166.773C226.093 166.773 226.652 166.725 227.239 166.631C227.845 166.517 228.299 166.422 228.602 166.347L230.705 176.375C230.042 176.564 229.104 176.801 227.892 177.085C226.699 177.369 225.269 177.549 223.602 177.625C220.345 177.777 217.551 177.398 215.222 176.489C212.911 175.561 211.14 174.121 209.909 172.17C208.697 170.22 208.11 167.767 208.148 164.812V122.909ZM250.051 118.818L263.062 161.432H263.545L276.557 118.818H292.295L272.665 177H253.943L234.312 118.818H250.051ZM298.56 177V133.364H312.452V177H298.56ZM305.52 128.278C303.569 128.278 301.893 127.634 300.491 126.347C299.09 125.04 298.389 123.468 298.389 121.631C298.389 119.812 299.09 118.259 300.491 116.972C301.893 115.665 303.569 115.011 305.52 115.011C307.49 115.011 309.166 115.665 310.548 116.972C311.95 118.259 312.651 119.812 312.651 121.631C312.651 123.468 311.95 125.04 310.548 126.347C309.166 127.634 307.49 128.278 305.52 128.278ZM359.391 146.688L346.635 147.028C346.502 146.119 346.143 145.314 345.555 144.614C344.968 143.894 344.201 143.335 343.254 142.938C342.326 142.521 341.247 142.312 340.016 142.312C338.406 142.312 337.033 142.634 335.896 143.278C334.779 143.922 334.23 144.794 334.249 145.892C334.23 146.744 334.571 147.483 335.271 148.108C335.991 148.733 337.269 149.235 339.107 149.614L347.516 151.205C351.872 152.038 355.11 153.42 357.232 155.352C359.372 157.284 360.451 159.841 360.47 163.023C360.451 166.015 359.561 168.619 357.8 170.835C356.057 173.051 353.671 174.775 350.641 176.006C347.61 177.218 344.144 177.824 340.243 177.824C334.012 177.824 329.097 176.545 325.499 173.989C321.919 171.413 319.874 167.966 319.362 163.648L333.084 163.307C333.387 164.898 334.173 166.11 335.442 166.943C336.711 167.777 338.33 168.193 340.3 168.193C342.08 168.193 343.529 167.862 344.646 167.199C345.764 166.536 346.332 165.655 346.351 164.557C346.332 163.572 345.896 162.786 345.044 162.199C344.192 161.593 342.857 161.119 341.038 160.778L333.425 159.33C329.05 158.534 325.792 157.066 323.652 154.926C321.512 152.767 320.451 150.021 320.47 146.688C320.451 143.771 321.228 141.28 322.8 139.216C324.372 137.133 326.607 135.542 329.504 134.443C332.402 133.345 335.821 132.795 339.76 132.795C345.669 132.795 350.328 134.036 353.737 136.517C357.146 138.979 359.031 142.369 359.391 146.688ZM367.31 177V133.364H381.202V177H367.31ZM374.27 128.278C372.319 128.278 370.643 127.634 369.241 126.347C367.84 125.04 367.139 123.468 367.139 121.631C367.139 119.812 367.84 118.259 369.241 116.972C370.643 115.665 372.319 115.011 374.27 115.011C376.24 115.011 377.916 115.665 379.298 116.972C380.7 118.259 381.401 119.812 381.401 121.631C381.401 123.468 380.7 125.04 379.298 126.347C377.916 127.634 376.24 128.278 374.27 128.278ZM410.413 177.824C405.83 177.824 401.891 176.886 398.595 175.011C395.319 173.117 392.79 170.485 391.01 167.114C389.249 163.723 388.368 159.794 388.368 155.324C388.368 150.835 389.249 146.905 391.01 143.534C392.79 140.144 395.319 137.511 398.595 135.636C401.891 133.742 405.83 132.795 410.413 132.795C414.997 132.795 418.927 133.742 422.203 135.636C425.499 137.511 428.027 140.144 429.788 143.534C431.569 146.905 432.459 150.835 432.459 155.324C432.459 159.794 431.569 163.723 429.788 167.114C428.027 170.485 425.499 173.117 422.203 175.011C418.927 176.886 414.997 177.824 410.413 177.824ZM410.499 167.341C412.165 167.341 413.576 166.83 414.732 165.807C415.887 164.784 416.768 163.364 417.374 161.545C417.999 159.727 418.311 157.625 418.311 155.239C418.311 152.814 417.999 150.693 417.374 148.875C416.768 147.057 415.887 145.636 414.732 144.614C413.576 143.591 412.165 143.08 410.499 143.08C408.775 143.08 407.317 143.591 406.124 144.614C404.949 145.636 404.05 147.057 403.425 148.875C402.819 150.693 402.516 152.814 402.516 155.239C402.516 157.625 402.819 159.727 403.425 161.545C404.05 163.364 404.949 164.784 406.124 165.807C407.317 166.83 408.775 167.341 410.499 167.341ZM453.467 152.114V177H439.575V133.364H452.786V141.375H453.268C454.234 138.705 455.882 136.612 458.212 135.097C460.541 133.562 463.316 132.795 466.536 132.795C469.604 132.795 472.265 133.487 474.518 134.869C476.791 136.233 478.553 138.146 479.803 140.608C481.071 143.051 481.696 145.911 481.678 149.188V177H467.786V151.915C467.804 149.491 467.189 147.597 465.939 146.233C464.708 144.869 462.994 144.188 460.797 144.188C459.339 144.188 458.051 144.509 456.933 145.153C455.835 145.778 454.982 146.678 454.376 147.852C453.789 149.027 453.486 150.447 453.467 152.114Z" fill="white"/>
</svg>
