<svg width="563" height="187" viewBox="0 0 563 187" fill="none" xmlns="http://www.w3.org/2000/svg">
<path d="M507 0H538C551.807 0 563 11.1929 563 25V162C563 175.807 551.807 187 538 187H507V0Z" fill="#277DA1"/>
<path d="M0 25C0 11.1929 11.1929 0 25 0H59V187H25C11.1929 187 0 175.807 0 162V25Z" fill="#F94144"/>
<rect x="59" width="56" height="187" fill="#F3722C"/>
<rect x="115" width="56" height="187" fill="#F8961E"/>
<rect x="171" width="56" height="187" fill="#F9844A"/>
<rect x="227" width="56" height="187" fill="#F9C74F"/>
<rect x="283" width="56" height="187" fill="#90BE6D"/>
<rect x="339" width="56" height="187" fill="#43AA8B"/>
<rect x="395" width="56" height="187" fill="#4D908E"/>
<rect x="451" width="56" height="187" fill="#577590"/>
</svg>
